<svg id="Layer_1" data-name="Layer 1" xmlns="http://www.w3.org/2000/svg" viewBox="0 0 609 545"><defs><style>.cls-1{fill:#1a1b1c;stroke:#1a1b1c;stroke-miterlimit:10;}</style></defs><title>frame</title><rect class="cls-1" x="592.5" y="384.5" width="16" height="16"/><rect class="cls-1" x="592.5" y="368.5" width="16" height="16"/><rect class="cls-1" x="592.5" y="352.5" width="16" height="16"/><rect class="cls-1" x="592.5" y="336.5" width="16" height="16"/><rect class="cls-1" x="592.5" y="320.5" width="16" height="16"/><rect class="cls-1" x="592.5" y="304.5" width="16" height="16"/><rect class="cls-1" x="592.5" y="288.5" width="16" height="16"/><rect class="cls-1" x="592.5" y="272.5" width="16" height="16"/><rect class="cls-1" x="592.5" y="256.5" width="16" height="16"/><rect class="cls-1" x="592.5" y="240.5" width="16" height="16"/><rect class="cls-1" x="592.5" y="224.5" width="16" height="16"/><rect class="cls-1" x="592.5" y="208.5" width="16" height="16"/><rect class="cls-1" x="592.5" y="192.5" width="16" height="16"/><rect class="cls-1" x="592.5" y="176.5" width="16" height="16"/><rect class="cls-1" x="592.5" y="160.5" width="16" height="16"/><rect class="cls-1" x="592.5" y="144.5" width="16" height="16"/><rect class="cls-1" x="576.5" y="400.5" width="16" height="16"/><rect class="cls-1" x="576.5" y="128.5" width="16" height="16"/><rect class="cls-1" x="560.5" y="416.5" width="16" height="16"/><rect class="cls-1" x="560.5" y="112.5" width="16" height="16"/><rect class="cls-1" x="544.5" y="432.5" width="16" height="16"/><rect class="cls-1" x="544.5" y="96.5" width="16" height="16"/><rect class="cls-1" x="528.5" y="448.5" width="16" height="16"/><rect class="cls-1" x="528.5" y="80.5" width="16" height="16"/><rect class="cls-1" x="512.5" y="464.5" width="16" height="16"/><rect class="cls-1" x="512.5" y="64.5" width="16" height="16"/><rect class="cls-1" x="496.5" y="480.5" width="16" height="16"/><rect class="cls-1" x="496.5" y="48.5" width="16" height="16"/><rect class="cls-1" x="480.5" y="480.5" width="16" height="16"/><rect class="cls-1" x="480.5" y="48.5" width="16" height="16"/><rect class="cls-1" x="464.5" y="496.5" width="16" height="16"/><rect class="cls-1" x="464.5" y="32.5" width="16" height="16"/><rect class="cls-1" x="448.5" y="496.5" width="16" height="16"/><rect class="cls-1" x="448.5" y="32.5" width="16" height="16"/><rect class="cls-1" x="432.5" y="512.5" width="16" height="16"/><rect class="cls-1" x="432.5" y="16.5" width="16" height="16"/><rect class="cls-1" x="416.5" y="512.5" width="16" height="16"/><rect class="cls-1" x="416.5" y="16.5" width="16" height="16"/><rect class="cls-1" x="400.5" y="512.5" width="16" height="16"/><rect class="cls-1" x="400.5" y="16.5" width="16" height="16"/><rect class="cls-1" x="384.5" y="512.5" width="16" height="16"/><rect class="cls-1" x="384.5" y="16.5" width="16" height="16"/><rect class="cls-1" x="368.5" y="528.5" width="16" height="16"/><rect class="cls-1" x="368.5" y="0.5" width="16" height="16"/><rect class="cls-1" x="352.5" y="528.5" width="16" height="16"/><rect class="cls-1" x="352.5" y="0.5" width="16" height="16"/><rect class="cls-1" x="336.5" y="528.5" width="16" height="16"/><rect class="cls-1" x="336.5" y="0.5" width="16" height="16"/><rect class="cls-1" x="320.5" y="528.5" width="16" height="16"/><rect class="cls-1" x="320.5" y="0.5" width="16" height="16"/><rect class="cls-1" x="304.5" y="528.5" width="16" height="16"/><rect class="cls-1" x="304.5" y="0.5" width="16" height="16"/><rect class="cls-1" x="288.5" y="528.5" width="16" height="16"/><rect class="cls-1" x="288.5" y="0.5" width="16" height="16"/><rect class="cls-1" x="272.5" y="528.5" width="16" height="16"/><rect class="cls-1" x="272.5" y="0.5" width="16" height="16"/><rect class="cls-1" x="256.5" y="528.5" width="16" height="16"/><rect class="cls-1" x="256.5" y="0.5" width="16" height="16"/><rect class="cls-1" x="240.5" y="528.5" width="16" height="16"/><rect class="cls-1" x="240.5" y="0.5" width="16" height="16"/><rect class="cls-1" x="224.5" y="528.5" width="16" height="16"/><rect class="cls-1" x="224.5" y="0.5" width="16" height="16"/><rect class="cls-1" x="208.5" y="512.5" width="16" height="16"/><rect class="cls-1" x="208.5" y="16.5" width="16" height="16"/><rect class="cls-1" x="192.5" y="512.5" width="16" height="16"/><rect class="cls-1" x="192.5" y="16.5" width="16" height="16"/><rect class="cls-1" x="176.5" y="512.5" width="16" height="16"/><rect class="cls-1" x="176.5" y="16.5" width="16" height="16"/><rect class="cls-1" x="160.5" y="512.5" width="16" height="16"/><rect class="cls-1" x="160.5" y="16.5" width="16" height="16"/><rect class="cls-1" x="144.5" y="496.5" width="16" height="16"/><rect class="cls-1" x="144.5" y="32.5" width="16" height="16"/><rect class="cls-1" x="128.5" y="496.5" width="16" height="16"/><rect class="cls-1" x="128.5" y="32.5" width="16" height="16"/><rect class="cls-1" x="112.5" y="480.5" width="16" height="16"/><rect class="cls-1" x="112.5" y="48.5" width="16" height="16"/><rect class="cls-1" x="96.5" y="480.5" width="16" height="16"/><rect class="cls-1" x="96.5" y="48.5" width="16" height="16"/><rect class="cls-1" x="80.5" y="464.5" width="16" height="16"/><rect class="cls-1" x="80.5" y="64.5" width="16" height="16"/><rect class="cls-1" x="64.5" y="448.5" width="16" height="16"/><rect class="cls-1" x="64.5" y="80.5" width="16" height="16"/><rect class="cls-1" x="48.5" y="432.5" width="16" height="16"/><rect class="cls-1" x="48.5" y="96.5" width="16" height="16"/><rect class="cls-1" x="32.5" y="416.5" width="16" height="16"/><rect class="cls-1" x="32.5" y="112.5" width="16" height="16"/><rect class="cls-1" x="16.5" y="400.5" width="16" height="16"/><rect class="cls-1" x="16.5" y="128.5" width="16" height="16"/><rect class="cls-1" x="0.5" y="384.5" width="16" height="16"/><rect class="cls-1" x="0.5" y="368.5" width="16" height="16"/><rect class="cls-1" x="0.5" y="352.5" width="16" height="16"/><rect class="cls-1" x="0.5" y="336.5" width="16" height="16"/><rect class="cls-1" x="0.5" y="320.5" width="16" height="16"/><rect class="cls-1" x="0.5" y="304.5" width="16" height="16"/><rect class="cls-1" x="0.5" y="288.5" width="16" height="16"/><rect class="cls-1" x="0.5" y="272.5" width="16" height="16"/><rect class="cls-1" x="0.5" y="256.5" width="16" height="16"/><rect class="cls-1" x="0.5" y="240.5" width="16" height="16"/><rect class="cls-1" x="0.5" y="224.5" width="16" height="16"/><rect class="cls-1" x="0.5" y="208.5" width="16" height="16"/><rect class="cls-1" x="0.5" y="192.5" width="16" height="16"/><rect class="cls-1" x="0.5" y="176.5" width="16" height="16"/><rect class="cls-1" x="0.5" y="160.5" width="16" height="16"/><rect class="cls-1" x="0.5" y="144.5" width="16" height="16"/></svg>